<?xml version="1.0" encoding="UTF-8"?>
<!DOCTYPE svg PUBLIC "-//W3C//DTD SVG 1.1//EN" "http://www.w3.org/Graphics/SVG/1.1/DTD/svg11.dtd">
<!-- Creator: CorelDRAW X7 -->
<svg xmlns="http://www.w3.org/2000/svg" xml:space="preserve" width="380mm" height="380mm" version="1.1" style="shape-rendering:geometricPrecision; text-rendering:geometricPrecision; image-rendering:optimizeQuality; fill-rule:evenodd; clip-rule:evenodd"
viewBox="0 0 38000 38000"
 xmlns:xlink="http://www.w3.org/1999/xlink">
 <defs>
  <style type="text/css">
   <![CDATA[
    .str0 {stroke:#ED3237;stroke-width:7.62;stroke-linejoin:bevel}
    .fil0 {fill:none}
    .fil1 {fill:#373435;fill-rule:nonzero}
   ]]>
  </style>
 </defs>
 <g id="Capa_x0020_1">
  <metadata id="CorelCorpID_0Corel-Layer"/>
  <g id="_314668408">
   <line class="fil0 str0" x1="12899" y1="6292" x2="12899" y2= "5992" />
   <line class="fil0 str0" x1="14313" y1="6292" x2="12899" y2= "6292" />
   <line class="fil0 str0" x1="14313" y1="5992" x2="14313" y2= "6292" />
   <line class="fil0 str0" x1="15406" y1="5992" x2="14313" y2= "5992" />
   <line class="fil0 str0" x1="15406" y1="7585" x2="15406" y2= "5992" />
   <line class="fil0 str0" x1="15106" y1="7585" x2="15406" y2= "7585" />
   <line class="fil0 str0" x1="15106" y1="8999" x2="15106" y2= "7585" />
   <line class="fil0 str0" x1="15406" y1="8999" x2="15106" y2= "8999" />
   <line class="fil0 str0" x1="15406" y1="10592" x2="15406" y2= "8999" />
   <line class="fil0 str0" x1="14313" y1="10592" x2="15406" y2= "10592" />
   <line class="fil0 str0" x1="14313" y1="10292" x2="14313" y2= "10592" />
   <line class="fil0 str0" x1="12899" y1="10292" x2="14313" y2= "10292" />
   <line class="fil0 str0" x1="12899" y1="10592" x2="12899" y2= "10292" />
   <line class="fil0 str0" x1="11806" y1="10592" x2="12899" y2= "10592" />
   <line class="fil0 str0" x1="11806" y1="8999" x2="11806" y2= "10592" />
   <line class="fil0 str0" x1="12106" y1="8999" x2="11806" y2= "8999" />
   <line class="fil0 str0" x1="12106" y1="7585" x2="12106" y2= "8999" />
   <line class="fil0 str0" x1="11806" y1="7585" x2="12106" y2= "7585" />
   <line class="fil0 str0" x1="11806" y1="5992" x2="11806" y2= "7585" />
   <line class="fil0 str0" x1="12899" y1="5992" x2="11806" y2= "5992" />
  </g>
  <g id="_314697304">
   <line class="fil0 str0" x1="15101" y1="2609" x2="15101" y2= "4023" />
   <line class="fil0 str0" x1="11801" y1="5616" x2="11801" y2= "4023" />
   <line class="fil0 str0" x1="12101" y1="4023" x2="12101" y2= "2609" />
   <line class="fil0 str0" x1="12101" y1="2609" x2="11801" y2= "2609" />
   <line class="fil0 str0" x1="11801" y1="2609" x2="11801" y2= "1016" />
   <line class="fil0 str0" x1="12894" y1="1016" x2="12894" y2= "1316" />
   <line class="fil0 str0" x1="12894" y1="1316" x2="14308" y2= "1316" />
   <line class="fil0 str0" x1="14201" y1="2216" x2="14201" y2= "1616" />
   <line class="fil0 str0" x1="13001" y1="1616" x2="13001" y2= "2216" />
   <line class="fil0 str0" x1="13001" y1="2216" x2="14201" y2= "2216" />
   <line class="fil0 str0" x1="14251" y1="4116" x2="14251" y2= "3416" />
   <line class="fil0 str0" x1="14251" y1="3416" x2="12751" y2= "3416" />
   <line class="fil0 str0" x1="12894" y1="5316" x2="12894" y2= "5616" />
   <line class="fil0 str0" x1="14308" y1="5316" x2="12894" y2= "5316" />
   <line class="fil0 str0" x1="14308" y1="5616" x2="14308" y2= "5316" />
   <line class="fil0 str0" x1="15401" y1="5616" x2="14308" y2= "5616" />
   <line class="fil0 str0" x1="15401" y1="4023" x2="15401" y2= "5616" />
   <line class="fil0 str0" x1="12751" y1="4116" x2="14251" y2= "4116" />
   <line class="fil0 str0" x1="12751" y1="3416" x2="12751" y2= "4116" />
   <line class="fil0 str0" x1="15401" y1="2609" x2="15101" y2= "2609" />
   <line class="fil0 str0" x1="15401" y1="1016" x2="15401" y2= "2609" />
   <line class="fil0 str0" x1="14308" y1="1016" x2="15401" y2= "1016" />
   <line class="fil0 str0" x1="15101" y1="4023" x2="15401" y2= "4023" />
   <line class="fil0 str0" x1="12894" y1="5616" x2="11801" y2= "5616" />
   <line class="fil0 str0" x1="11801" y1="4023" x2="12101" y2= "4023" />
   <line class="fil0 str0" x1="14308" y1="1316" x2="14308" y2= "1016" />
   <line class="fil0 str0" x1="14201" y1="1616" x2="13001" y2= "1616" />
   <line class="fil0 str0" x1="11801" y1="1016" x2="12894" y2= "1016" />
   <path class="fil1" d="M12798 2782l0 -368 177 0c34,0 64,5 89,16 25,12 44,28 58,49 14,20 21,45 21,73 0,29 -7,53 -21,74 -14,21 -33,37 -58,48 -25,11 -55,17 -89,17l-108 0 55 -53 0 144 -124 0zm124 -130l-55 -57 100 0c17,0 30,-3 38,-11 8,-8 13,-18 13,-32 0,-13 -5,-23 -13,-31 -8,-8 -21,-12 -38,-12l-100 0 55 -56 0 199zm277 130l0 -368 177 0c34,0 64,5 89,16 25,12 45,28 58,49 14,20 21,45 21,73 0,29 -7,53 -21,74 -13,20 -33,36 -58,47 -25,11 -55,16 -89,16l-108 0 55 -51 0 144 -124 0zm220 0l-90 -134 131 0 92 134 -133 0zm-96 -130l-55 -57 100 0c17,0 30,-3 38,-11 8,-8 13,-18 13,-32 0,-13 -5,-23 -13,-31 -8,-8 -21,-12 -38,-12l-100 0 55 -56 0 199zm477 138c-30,0 -58,-5 -84,-14 -25,-10 -47,-23 -66,-40 -18,-18 -33,-38 -43,-62 -10,-23 -15,-49 -15,-76 0,-28 5,-54 15,-77 10,-24 25,-44 43,-61 19,-18 41,-31 66,-41 26,-9 53,-14 83,-14 30,0 58,5 83,14 25,10 47,23 66,41 18,17 33,37 43,61 11,23 16,49 16,77 0,27 -5,53 -16,76 -10,24 -25,44 -43,62 -19,17 -41,30 -66,40 -25,9 -53,14 -82,14zm-1 -100c12,0 22,-3 32,-7 10,-4 19,-10 27,-18 7,-8 13,-17 17,-29 5,-11 7,-24 7,-38 0,-15 -2,-28 -7,-39 -4,-11 -10,-21 -17,-29 -8,-8 -17,-14 -27,-18 -10,-4 -20,-6 -32,-6 -11,0 -22,2 -32,6 -10,4 -19,10 -26,18 -8,8 -14,18 -18,29 -4,11 -6,24 -6,39 0,14 2,27 6,38 4,12 10,21 18,29 7,8 16,14 26,18 10,4 21,7 32,7zm460 100c-30,0 -58,-5 -83,-14 -25,-9 -47,-22 -65,-40 -18,-17 -33,-37 -43,-61 -10,-23 -15,-49 -15,-77 0,-29 5,-55 15,-78 10,-24 25,-44 43,-61 19,-17 41,-31 66,-40 26,-9 54,-14 84,-14 37,0 69,6 98,19 28,12 52,29 70,52l-79 70c-12,-13 -24,-23 -38,-30 -13,-7 -28,-10 -45,-10 -13,0 -26,2 -37,6 -11,4 -20,10 -28,18 -7,8 -13,18 -18,29 -4,11 -6,24 -6,39 0,13 2,26 6,37 5,12 11,21 18,29 8,8 17,15 28,19 11,4 23,7 36,7 14,0 28,-3 41,-8 13,-4 27,-12 42,-24l70 85c-23,15 -48,27 -77,35 -29,8 -56,12 -83,12zm52 -63l0 -139 108 0 0 155 -108 -16z"/>
   <path class="fil1" d="M12409 4652c-24,0 -45,-4 -65,-11 -20,-8 -37,-18 -51,-31 -14,-14 -26,-30 -34,-48 -8,-18 -12,-38 -12,-59 0,-22 4,-42 12,-60 8,-18 20,-34 34,-47 14,-14 31,-24 51,-32 20,-7 41,-11 64,-11 24,0 45,4 65,11 19,8 36,18 50,32 15,13 26,29 34,47 8,18 12,38 12,60 0,21 -4,41 -12,59 -8,18 -19,34 -34,48 -14,13 -31,23 -50,31 -20,7 -41,11 -64,11zm-1 -78c9,0 18,-2 25,-5 8,-3 15,-8 21,-14 5,-6 10,-14 13,-22 4,-9 5,-19 5,-30 0,-12 -1,-22 -5,-30 -3,-9 -8,-17 -13,-23 -6,-6 -13,-11 -21,-14 -7,-3 -16,-5 -25,-5 -9,0 -17,2 -25,5 -8,3 -14,8 -20,14 -6,6 -11,14 -14,23 -3,8 -5,18 -5,30 0,11 2,21 5,30 3,8 8,16 14,22 6,6 12,11 20,14 8,3 16,5 25,5zm345 78c-44,0 -78,-12 -102,-36 -25,-23 -37,-57 -37,-99l0 -157 96 0 0 154c0,22 4,37 12,46 8,9 18,14 32,14 13,0 24,-5 32,-14 7,-9 11,-24 11,-46l0 -154 95 0 0 157c0,42 -12,76 -37,99 -24,24 -58,36 -102,36zm253 -7l0 -210 -84 0 0 -75 263 0 0 75 -83 0 0 210 -96 0zm217 0l0 -285 137 0c26,0 49,4 69,13 19,9 34,21 45,37 11,16 16,36 16,58 0,22 -5,41 -16,57 -11,16 -26,28 -45,37 -20,9 -43,13 -69,13l-84 0 43 -41 0 111 -96 0zm96 -100l-43 -44 78 0c13,0 23,-3 29,-9 7,-6 10,-14 10,-24 0,-11 -3,-19 -10,-25 -6,-6 -16,-9 -29,-9l-78 0 43 -43 0 154zm347 107c-44,0 -78,-12 -102,-36 -25,-23 -37,-57 -37,-99l0 -157 96 0 0 154c0,22 4,37 12,46 8,9 18,14 32,14 13,0 24,-5 32,-14 7,-9 11,-24 11,-46l0 -154 95 0 0 157c0,42 -12,76 -37,99 -24,24 -58,36 -102,36zm253 -7l0 -210 -84 0 0 -75 263 0 0 75 -83 0 0 210 -96 0zm418 7c-20,0 -40,-2 -60,-7 -20,-4 -37,-11 -53,-19l33 -71c12,7 25,12 38,16 14,3 26,5 38,5 11,0 20,-2 27,-6 7,-4 11,-9 11,-17 0,-4 -2,-7 -4,-10 -3,-3 -7,-6 -13,-7 -6,-2 -15,-3 -27,-3l-82 0 14 -173 189 0 0 72 -155 0 48 -41 -8 111 -49 -41 67 0c28,0 50,4 67,12 17,8 30,19 38,33 7,13 11,29 11,45 0,17 -4,33 -14,49 -9,15 -23,28 -42,37 -19,10 -44,15 -74,15zm258 -7l-120 -285 103 0 99 241 -62 0 101 -241 95 0 -121 285 -95 0z"/>
  </g>
  <g id="_314692144">
   <line class="fil0 str0" x1="4108" y1="6253" x2="2694" y2= "6253" />
   <line class="fil0 str0" x1="4108" y1="5953" x2="4108" y2= "6253" />
   <line class="fil0 str0" x1="5522" y1="5953" x2="4108" y2= "5953" />
   <line class="fil0 str0" x1="5522" y1="6253" x2="5522" y2= "5953" />
   <line class="fil0 str0" x1="6936" y1="6253" x2="5522" y2= "6253" />
   <line class="fil0 str0" x1="6936" y1="5953" x2="6936" y2= "6253" />
   <line class="fil0 str0" x1="8350" y1="6253" x2="8350" y2= "5953" />
   <line class="fil0 str0" x1="9764" y1="6253" x2="8350" y2= "6253" />
   <line class="fil0 str0" x1="9764" y1="5953" x2="9764" y2= "6253" />
   <line class="fil0 str0" x1="11229" y1="5953" x2="9764" y2= "5953" />
   <line class="fil0 str0" x1="11529" y1="7546" x2="11229" y2= "7546" />
   <line class="fil0 str0" x1="11529" y1="8960" x2="11529" y2= "7546" />
   <line class="fil0 str0" x1="5522" y1="10553" x2="5522" y2= "10253" />
   <line class="fil0 str0" x1="4108" y1="10553" x2="5522" y2= "10553" />
   <line class="fil0 str0" x1="2694" y1="10553" x2="2694" y2= "10253" />
   <line class="fil0 str0" x1="1229" y1="10553" x2="2694" y2= "10553" />
   <line class="fil0 str0" x1="1229" y1="8960" x2="1229" y2= "10553" />
   <line class="fil0 str0" x1="929" y1="8960" x2="1229" y2= "8960" />
   <line class="fil0 str0" x1="929" y1="7546" x2="929" y2= "8960" />
   <line class="fil0 str0" x1="1229" y1="5953" x2="1229" y2= "7546" />
   <line class="fil0 str0" x1="2694" y1="5953" x2="1229" y2= "5953" />
   <line class="fil0 str0" x1="2649" y1="7353" x2="1829" y2= "7353" />
   <line class="fil0 str0" x1="1829" y1="7353" x2="1829" y2= "7953" />
   <line class="fil0 str0" x1="1829" y1="7953" x2="2649" y2= "7953" />
   <line class="fil0 str0" x1="2649" y1="7953" x2="2649" y2= "7353" />
   <line class="fil0 str0" x1="5579" y1="7053" x2="4229" y2= "7053" />
   <line class="fil0 str0" x1="4229" y1="8053" x2="5579" y2= "8053" />
   <line class="fil0 str0" x1="5579" y1="8053" x2="5579" y2= "7053" />
   <line class="fil0 str0" x1="11229" y1="7546" x2="11229" y2= "5953" />
   <line class="fil0 str0" x1="2694" y1="6253" x2="2694" y2= "5953" />
   <line class="fil0 str0" x1="8350" y1="5953" x2="6936" y2= "5953" />
   <line class="fil0 str0" x1="9764" y1="10253" x2="9764" y2= "10553" />
   <line class="fil0 str0" x1="8350" y1="10253" x2="9764" y2= "10253" />
   <line class="fil0 str0" x1="8350" y1="10553" x2="8350" y2= "10253" />
   <line class="fil0 str0" x1="4108" y1="10253" x2="4108" y2= "10553" />
   <line class="fil0 str0" x1="11229" y1="8960" x2="11529" y2= "8960" />
   <line class="fil0 str0" x1="9764" y1="10553" x2="11229" y2= "10553" />
   <line class="fil0 str0" x1="6936" y1="10553" x2="8350" y2= "10553" />
   <line class="fil0 str0" x1="6936" y1="10253" x2="6936" y2= "10553" />
   <line class="fil0 str0" x1="5522" y1="10253" x2="6936" y2= "10253" />
   <line class="fil0 str0" x1="2694" y1="10253" x2="4108" y2= "10253" />
   <line class="fil0 str0" x1="11229" y1="10553" x2="11229" y2= "8960" />
   <line class="fil0 str0" x1="1229" y1="7546" x2="929" y2= "7546" />
   <line class="fil0 str0" x1="4229" y1="7053" x2="4229" y2= "8053" />
   <path class="fil1" d="M1412 8536c-29,0 -57,-4 -84,-10 -27,-7 -49,-15 -66,-26l37 -85c17,10 35,17 55,23 21,6 40,9 59,9 12,0 20,-1 27,-2 6,-2 11,-4 14,-7 3,-3 4,-6 4,-10 0,-6 -3,-11 -10,-15 -7,-3 -16,-7 -27,-9 -12,-2 -24,-5 -38,-8 -13,-3 -27,-6 -40,-11 -14,-5 -27,-11 -38,-18 -11,-8 -21,-18 -27,-30 -7,-13 -11,-28 -11,-46 0,-22 6,-41 18,-59 12,-17 30,-32 54,-42 24,-11 54,-16 89,-16 24,0 47,3 69,8 23,4 43,12 62,22l-35 85c-18,-9 -34,-15 -50,-20 -16,-4 -32,-6 -47,-6 -11,0 -20,1 -26,3 -7,2 -12,5 -15,8 -2,3 -4,7 -4,11 0,6 4,10 11,14 7,3 16,6 27,8 11,3 24,5 38,8 13,2 27,6 40,11 14,4 26,10 38,18 11,8 20,17 27,30 7,12 10,27 10,45 0,21 -6,40 -18,58 -12,18 -30,32 -53,43 -24,10 -54,16 -90,16zm310 -226l154 0 0 84 -154 0 0 -84zm8 130l173 0 0 88 -288 0 0 -346 281 0 0 88 -166 0 0 170zm225 88l0 -346 96 0 176 210 -45 0 0 -210 114 0 0 346 -96 0 -176 -211 45 0 0 211 -114 0zm534 8c-29,0 -57,-4 -84,-10 -27,-7 -50,-15 -67,-26l37 -85c17,10 35,17 56,23 20,6 39,9 59,9 11,0 20,-1 26,-2 6,-2 11,-4 14,-7 3,-3 4,-6 4,-10 0,-6 -3,-11 -10,-15 -7,-3 -16,-7 -27,-9 -12,-2 -24,-5 -38,-8 -13,-3 -27,-6 -40,-11 -14,-5 -27,-11 -38,-18 -11,-8 -20,-18 -27,-30 -7,-13 -11,-28 -11,-46 0,-22 6,-41 18,-59 12,-17 30,-32 54,-42 24,-11 54,-16 89,-16 24,0 47,3 70,8 22,4 43,12 61,22l-35 85c-17,-9 -34,-15 -50,-20 -16,-4 -31,-6 -47,-6 -11,0 -20,1 -26,3 -7,2 -12,5 -14,8 -3,3 -5,7 -5,11 0,6 4,10 11,14 7,3 16,6 27,8 12,3 24,5 38,8 13,2 27,6 40,11 14,4 26,10 38,18 11,8 20,17 27,30 7,12 11,27 11,45 0,21 -6,40 -18,58 -12,18 -30,32 -54,43 -24,10 -54,16 -89,16zm384 0c-28,0 -54,-5 -78,-14 -24,-9 -45,-21 -62,-37 -17,-17 -31,-36 -41,-58 -9,-22 -14,-46 -14,-72 0,-26 5,-51 14,-72 10,-22 24,-41 41,-58 17,-16 38,-29 62,-38 24,-8 50,-13 78,-13 28,0 54,5 78,13 24,9 44,22 62,38 17,17 31,36 40,58 10,21 15,46 15,72 0,26 -5,50 -15,72 -9,22 -23,41 -40,58 -18,16 -38,28 -62,37 -24,9 -50,14 -78,14zm0 -95c11,0 21,-2 30,-6 10,-4 18,-9 25,-17 7,-7 12,-16 16,-27 4,-11 6,-23 6,-36 0,-14 -2,-26 -6,-36 -4,-11 -9,-20 -16,-28 -7,-7 -15,-13 -25,-17 -9,-4 -19,-6 -30,-6 -11,0 -21,2 -31,6 -9,4 -17,10 -24,17 -7,8 -13,17 -17,28 -4,10 -6,22 -6,36 0,13 2,25 6,36 4,11 10,20 17,27 7,8 15,13 24,17 10,4 20,6 31,6zm245 87l0 -346 166 0c32,0 60,5 84,16 23,10 42,25 54,45 13,20 20,43 20,69 0,27 -7,50 -20,69 -12,20 -31,34 -54,44 -24,11 -52,16 -84,16l-102 0 52 -48 0 135 -116 0zm207 0l-85 -126 123 0 86 126 -124 0zm-91 -122l-52 -53 95 0c16,0 28,-4 36,-11 7,-7 11,-17 11,-30 0,-12 -4,-22 -11,-29 -8,-7 -20,-11 -36,-11l-95 0 52 -53 0 187z"/>
   <path class="fil1" d="M4003 8636c-29,0 -55,-4 -79,-13 -24,-9 -44,-22 -62,-38 -17,-16 -31,-36 -40,-58 -10,-22 -15,-46 -15,-72 0,-26 5,-50 15,-72 9,-22 23,-41 40,-57 18,-17 38,-29 62,-38 24,-9 50,-14 78,-14 28,0 54,5 78,14 24,9 44,21 62,38 17,16 31,35 41,57 9,22 14,46 14,72 0,26 -5,50 -14,72 -10,22 -24,42 -41,58 -18,16 -38,29 -62,38 -24,9 -49,13 -77,13zm-1 -94c11,0 21,-2 31,-6 9,-4 17,-10 24,-17 7,-8 13,-17 17,-28 4,-10 6,-22 6,-36 0,-13 -2,-25 -6,-36 -4,-11 -10,-20 -17,-27 -7,-8 -15,-13 -24,-17 -10,-4 -20,-6 -31,-6 -11,0 -21,2 -30,6 -10,4 -18,9 -25,17 -7,7 -13,16 -16,27 -4,11 -6,23 -6,36 0,14 2,26 6,36 3,11 9,20 16,28 7,7 15,13 25,17 9,4 19,6 30,6zm245 86l0 -346 96 0 176 211 -45 0 0 -211 114 0 0 346 -96 0 -176 -210 45 0 0 210 -114 0zm357 49l163 -465 98 0 -163 465 -98 0zm444 -41c-28,0 -54,-4 -78,-13 -24,-9 -45,-22 -62,-38 -18,-16 -31,-36 -41,-58 -10,-22 -14,-46 -14,-72 0,-26 4,-50 14,-72 10,-22 23,-41 41,-57 17,-17 38,-29 62,-38 24,-9 50,-14 78,-14 28,0 54,5 78,14 23,9 44,21 61,38 18,16 32,35 41,57 10,22 15,46 15,72 0,26 -5,50 -15,72 -9,22 -23,42 -41,58 -17,16 -38,29 -61,38 -24,9 -50,13 -78,13zm0 -94c11,0 21,-2 30,-6 9,-4 18,-10 25,-17 7,-8 12,-17 16,-28 4,-10 6,-22 6,-36 0,-13 -2,-25 -6,-36 -4,-11 -9,-20 -16,-27 -7,-8 -16,-13 -25,-17 -9,-4 -19,-6 -30,-6 -11,0 -21,2 -31,6 -9,4 -17,9 -24,17 -7,7 -13,16 -17,27 -4,11 -6,23 -6,36 0,14 2,26 6,36 4,11 10,20 17,28 7,7 15,13 24,17 10,4 20,6 31,6zm353 -112l152 0 0 87 -152 0 0 -87zm8 198l-116 0 0 -346 281 0 0 88 -165 0 0 258zm318 -198l152 0 0 87 -152 0 0 -87zm8 198l-117 0 0 -346 281 0 0 88 -164 0 0 258z"/>
  </g>
  <g id="_314686576">
   <line class="fil0 str0" x1="941" y1="13433" x2="1241" y2= "13433" />
   <line class="fil0 str0" x1="941" y1="12019" x2="941" y2= "13433" />
   <line class="fil0 str0" x1="1241" y1="12019" x2="941" y2= "12019" />
   <line class="fil0 str0" x1="1241" y1="11226" x2="1241" y2= "12019" />
   <line class="fil0 str0" x1="4120" y1="11226" x2="4120" y2= "10926" />
   <line class="fil0 str0" x1="5534" y1="11226" x2="4120" y2= "11226" />
   <line class="fil0 str0" x1="5534" y1="10926" x2="5534" y2= "11226" />
   <line class="fil0 str0" x1="6948" y1="10926" x2="5534" y2= "10926" />
   <line class="fil0 str0" x1="6948" y1="11226" x2="6948" y2= "10926" />
   <line class="fil0 str0" x1="8362" y1="11226" x2="6948" y2= "11226" />
   <line class="fil0 str0" x1="9776" y1="10926" x2="8362" y2= "10926" />
   <line class="fil0 str0" x1="9776" y1="11226" x2="9776" y2= "10926" />
   <line class="fil0 str0" x1="11241" y1="11226" x2="9776" y2= "11226" />
   <line class="fil0 str0" x1="11241" y1="12019" x2="11241" y2= "11226" />
   <line class="fil0 str0" x1="11541" y1="12019" x2="11241" y2= "12019" />
   <line class="fil0 str0" x1="11541" y1="13433" x2="11541" y2= "12019" />
   <line class="fil0 str0" x1="11241" y1="13433" x2="11541" y2= "13433" />
   <line class="fil0 str0" x1="11241" y1="14226" x2="11241" y2= "13433" />
   <line class="fil0 str0" x1="9776" y1="14526" x2="9776" y2= "14226" />
   <line class="fil0 str0" x1="8362" y1="10926" x2="8362" y2= "11226" />
   <line class="fil0 str0" x1="2706" y1="11226" x2="1241" y2= "11226" />
   <line class="fil0 str0" x1="2706" y1="10926" x2="2706" y2= "11226" />
   <line class="fil0 str0" x1="4120" y1="10926" x2="2706" y2= "10926" />
   <line class="fil0 str0" x1="5534" y1="14226" x2="5534" y2= "14526" />
   <line class="fil0 str0" x1="4120" y1="14226" x2="5534" y2= "14226" />
   <line class="fil0 str0" x1="1241" y1="13433" x2="1241" y2= "14226" />
   <line class="fil0 str0" x1="1841" y1="11576" x2="1841" y2= "13876" />
   <line class="fil0 str0" x1="9776" y1="14226" x2="11241" y2= "14226" />
   <line class="fil0 str0" x1="8362" y1="14526" x2="9776" y2= "14526" />
   <line class="fil0 str0" x1="6948" y1="14226" x2="8362" y2= "14226" />
   <line class="fil0 str0" x1="5534" y1="14526" x2="6948" y2= "14526" />
   <line class="fil0 str0" x1="6948" y1="14526" x2="6948" y2= "14226" />
   <line class="fil0 str0" x1="2706" y1="14526" x2="4120" y2= "14526" />
   <line class="fil0 str0" x1="2706" y1="14226" x2="2706" y2= "14526" />
   <line class="fil0 str0" x1="1241" y1="14226" x2="2706" y2= "14226" />
   <line class="fil0 str0" x1="3141" y1="11576" x2="1841" y2= "11576" />
   <line class="fil0 str0" x1="8362" y1="14226" x2="8362" y2= "14526" />
   <line class="fil0 str0" x1="3141" y1="13876" x2="3141" y2= "11576" />
   <line class="fil0 str0" x1="4120" y1="14526" x2="4120" y2= "14226" />
   <line class="fil0 str0" x1="1841" y1="13876" x2="3141" y2= "13876" />
   <path class="fil1" d="M4479 13555l0 -152 88 0 0 152 -88 0zm198 -8l0 117 -345 0 0 -281 88 0 0 164 257 0zm8 -410c0,28 -4,54 -13,78 -9,24 -21,45 -38,62 -16,17 -35,31 -57,41 -22,9 -46,14 -72,14 -27,0 -51,-5 -73,-14 -22,-10 -41,-24 -57,-41 -16,-17 -29,-38 -38,-62 -9,-24 -13,-50 -13,-78 0,-28 4,-54 13,-78 9,-24 22,-44 38,-62 16,-17 35,-31 57,-40 22,-10 46,-15 73,-15 26,0 50,5 72,15 22,9 41,23 57,40 17,18 29,38 38,62 9,24 13,50 13,78zm-94 0c0,-11 -2,-21 -6,-30 -4,-10 -10,-18 -17,-25 -7,-7 -16,-12 -27,-16 -11,-4 -23,-6 -36,-6 -14,0 -26,2 -37,6 -10,4 -19,9 -27,16 -7,7 -13,15 -17,25 -4,9 -6,19 -6,30 0,11 2,21 6,31 4,9 10,17 17,24 8,7 17,13 27,17 11,4 23,6 37,6 13,0 25,-2 36,-6 11,-4 20,-10 27,-17 7,-7 13,-15 17,-24 4,-10 6,-20 6,-31zm86 -267l-345 0 0 -166c0,-33 5,-61 16,-84 10,-24 25,-42 45,-55 19,-13 42,-19 69,-19 27,0 50,6 69,19 19,13 34,31 44,55 10,23 16,51 16,84l0 101 -48 -52 134 0 0 117zm0 -207l-126 85 0 -123 126 -86 0 124zm-122 90l-52 52 0 -94c0,-16 -4,-28 -11,-36 -8,-8 -17,-11 -30,-11 -12,0 -22,3 -30,11 -7,8 -10,20 -10,36l0 94 -53 -52 186 0zm130 -459c0,27 -4,53 -13,76 -8,24 -21,44 -37,62 -16,17 -35,30 -57,40 -22,9 -47,14 -73,14 -27,0 -51,-5 -74,-14 -22,-10 -41,-23 -57,-40 -16,-18 -28,-38 -37,-62 -9,-23 -13,-49 -13,-76 0,-34 6,-64 18,-90 11,-27 29,-48 51,-65l66 73c-13,10 -23,22 -30,34 -7,12 -11,26 -11,42 0,12 2,23 6,33 4,10 10,18 17,25 8,7 17,13 28,17 10,4 22,6 36,6 13,0 25,-2 35,-6 11,-4 20,-10 28,-17 7,-7 13,-15 17,-25 4,-10 6,-21 6,-33 0,-16 -4,-30 -11,-42 -7,-12 -17,-24 -29,-34l65 -73c22,17 39,38 51,65 12,26 18,56 18,90zm-225 -325l0 -154 84 0 0 154 -84 0zm130 -8l0 -173 87 0 0 287 -345 0 0 -281 88 0 0 167 170 0zm776 1770c0,29 -3,57 -9,84 -7,27 -16,49 -26,67l-85 -38c9,-16 17,-35 23,-55 6,-20 9,-40 9,-59 0,-11 -1,-20 -3,-26 -1,-7 -3,-11 -6,-14 -3,-3 -6,-5 -10,-5 -7,0 -11,4 -15,11 -4,6 -7,16 -9,27 -3,11 -5,24 -8,37 -3,14 -7,27 -11,41 -5,14 -11,26 -19,38 -7,11 -17,20 -29,27 -13,7 -28,10 -47,10 -21,0 -40,-6 -58,-18 -18,-12 -32,-30 -42,-54 -11,-23 -16,-53 -16,-89 0,-23 2,-46 7,-69 5,-23 13,-43 23,-61l84 35c-8,17 -15,34 -19,50 -4,16 -6,31 -6,46 0,11 1,20 3,27 2,7 4,11 8,14 3,3 7,4 11,4 5,0 10,-3 14,-10 3,-7 6,-16 8,-28 3,-11 5,-23 8,-37 2,-14 6,-27 11,-41 4,-13 10,-26 18,-37 7,-11 17,-21 29,-28 13,-6 28,-10 46,-10 21,0 40,6 58,18 17,12 32,30 42,54 11,23 16,53 16,89zm-225 -332l0 -154 84 0 0 154 -84 0zm130 -8l0 -173 88 0 0 288 -346 0 0 -281 88 0 0 166 170 0zm88 -247l-346 0 0 -96 210 -176 0 45 -210 0 0 -114 346 0 0 96 -211 176 0 -45 211 0 0 114zm7 -556c0,29 -3,57 -9,84 -7,27 -16,49 -26,67l-85 -38c9,-16 17,-34 23,-55 6,-20 9,-40 9,-59 0,-11 -1,-20 -3,-26 -1,-7 -3,-11 -6,-14 -3,-3 -6,-5 -10,-5 -7,0 -11,4 -15,11 -4,7 -7,16 -9,27 -3,11 -5,24 -8,37 -3,14 -7,27 -11,41 -5,14 -11,26 -19,38 -7,11 -17,20 -29,27 -13,7 -28,10 -47,10 -21,0 -40,-6 -58,-18 -18,-12 -32,-30 -42,-53 -11,-24 -16,-54 -16,-90 0,-23 2,-46 7,-69 5,-22 13,-43 23,-61l84 35c-8,17 -15,34 -19,50 -4,16 -6,31 -6,46 0,12 1,21 3,27 2,7 4,11 8,14 3,3 7,4 11,4 5,0 10,-3 14,-10 3,-7 6,-16 8,-27 3,-12 5,-24 8,-38 2,-14 6,-27 11,-41 4,-13 10,-26 18,-37 7,-11 17,-20 29,-27 13,-7 28,-11 46,-11 21,0 40,6 58,18 17,12 32,30 42,54 11,24 16,53 16,89zm0 -407c0,29 -4,55 -13,79 -9,23 -21,44 -38,62 -16,17 -35,31 -57,40 -22,10 -46,15 -72,15 -27,0 -51,-5 -73,-15 -22,-9 -41,-23 -57,-40 -16,-18 -29,-39 -38,-62 -9,-24 -13,-50 -13,-78 0,-29 4,-55 13,-78 9,-24 22,-45 38,-62 16,-17 35,-31 57,-41 22,-9 46,-14 73,-14 26,0 50,5 72,14 22,10 41,24 57,41 17,17 29,38 38,62 9,23 13,49 13,77zm-94 1c0,-11 -2,-21 -6,-31 -4,-9 -9,-17 -17,-24 -7,-7 -16,-13 -27,-17 -11,-4 -23,-6 -36,-6 -14,0 -26,2 -37,6 -10,4 -19,10 -27,17 -7,7 -13,15 -17,24 -4,10 -6,20 -6,31 0,11 2,21 6,30 4,10 10,18 17,25 8,7 17,12 27,16 11,4 23,6 37,6 13,0 25,-2 36,-6 11,-4 20,-9 27,-16 8,-7 13,-15 17,-25 4,-9 6,-19 6,-30zm87 -267l-346 0 0 -167c0,-32 5,-60 16,-84 10,-23 25,-41 45,-54 19,-13 42,-19 69,-19 27,0 50,6 69,19 19,13 34,31 44,54 10,24 16,52 16,84l0 102 -48 -52 135 0 0 117zm0 -207l-126 85 0 -124 126 -86 0 125zm-122 90l-53 52 0 -94c0,-17 -4,-29 -11,-36 -7,-8 -17,-12 -30,-12 -12,0 -22,4 -29,12 -8,7 -11,19 -11,36l0 94 -53 -52 187 0zm803 2083l-346 0 0 -167c0,-32 5,-60 16,-83 10,-24 25,-42 45,-55 19,-13 43,-19 69,-19 27,0 50,6 69,19 19,13 34,31 44,55 11,23 16,51 16,83l0 102 -48 -52 135 0 0 117zm0 -207l-126 85 0 -124 126 -86 0 125zm-122 90l-53 52 0 -94c0,-16 -4,-28 -11,-36 -7,-8 -17,-12 -30,-12 -12,0 -22,4 -29,12 -8,8 -11,20 -11,36l0 94 -53 -52 187 0zm-96 -388l0 -154 84 0 0 154 -84 0zm130 -7l0 -173 88 0 0 287 -346 0 0 -281 88 0 0 167 170 0zm88 -210l-346 -151 0 -115 346 -151 0 120 -291 112 0 -45 291 111 0 119zm-61 -90l-84 -30 0 -159 84 -29 0 218zm61 -376l-346 0 0 -170c0,-38 7,-72 21,-102 14,-29 34,-52 59,-68 26,-17 57,-25 92,-25 36,0 67,8 93,25 26,16 46,39 60,68 14,30 21,64 21,102l0 170zm-91 -116l0 -49c0,-16 -3,-31 -10,-43 -6,-13 -15,-22 -28,-29 -12,-7 -27,-10 -45,-10 -17,0 -32,3 -44,10 -12,7 -22,16 -28,29 -6,12 -9,27 -9,43l0 49 164 0zm-127 -428l0 -154 84 0 0 154 -84 0zm130 -8l0 -173 88 0 0 288 -346 0 0 -281 88 0 0 166 170 0zm88 -247l-346 0 0 -167c0,-32 5,-60 16,-83 10,-24 25,-42 45,-55 19,-13 43,-19 69,-19 27,0 50,6 69,19 19,13 34,31 44,55 11,23 16,51 16,83l0 102 -48 -52 135 0 0 117zm0 -207l-126 85 0 -124 126 -86 0 125zm-122 90l-53 52 0 -94c0,-16 -4,-28 -11,-36 -7,-8 -17,-12 -30,-12 -12,0 -22,4 -29,12 -8,8 -11,20 -11,36l0 94 -53 -52 187 0zm803 2162l-346 0 0 -96 226 -139 0 51 -226 -135 0 -95 346 -1 0 106 -186 1 0 -17 155 92 0 51 -155 96 0 -21 186 0 0 107zm8 -683c0,28 -5,54 -14,78 -9,24 -21,45 -38,62 -16,18 -35,31 -57,41 -22,10 -46,15 -72,15 -27,0 -51,-5 -73,-15 -21,-10 -41,-23 -57,-41 -16,-17 -29,-38 -38,-62 -9,-24 -13,-50 -13,-78 0,-28 4,-54 13,-78 9,-23 22,-44 38,-61 16,-18 36,-31 57,-41 22,-10 46,-15 73,-15 26,0 50,5 72,15 22,10 41,23 57,41 17,17 29,38 38,61 9,24 14,50 14,78zm-95 0c0,-10 -2,-21 -6,-30 -4,-9 -9,-18 -17,-25 -7,-7 -16,-12 -27,-16 -11,-4 -23,-6 -36,-6 -14,0 -26,2 -37,6 -10,4 -19,9 -27,16 -7,7 -13,16 -17,25 -4,9 -6,20 -6,30 0,11 2,21 6,31 4,9 10,17 17,25 8,7 17,12 27,16 11,4 23,6 37,6 13,0 25,-2 36,-6 11,-4 20,-9 27,-16 8,-8 13,-16 17,-25 4,-10 6,-20 6,-31zm87 -267l-346 0 0 -170c0,-39 7,-73 21,-102 14,-29 34,-52 59,-69 26,-16 57,-24 92,-24 36,0 67,8 93,24 26,17 46,40 60,69 14,29 21,63 21,102l0 170zm-91 -116l0 -49c0,-17 -3,-31 -10,-43 -6,-13 -15,-22 -28,-29 -12,-7 -27,-11 -45,-11 -17,0 -32,4 -44,11 -12,7 -22,16 -28,29 -6,12 -9,26 -9,43l0 49 164 0zm99 -487c0,53 -15,95 -43,124 -29,30 -69,45 -121,45l-190 0 0 -117 187 0c26,0 45,-5 56,-14 11,-10 16,-23 16,-39 0,-16 -5,-29 -16,-39 -11,-9 -30,-14 -56,-14l-187 0 0 -114 190 0c52,0 92,15 121,44 28,30 43,71 43,124zm-8 -251l-346 0 0 -117 255 0 0 -156 91 0 0 273zm-218 -441l0 -154 84 0 0 154 -84 0zm130 -8l0 -173 88 0 0 288 -346 0 0 -282 88 0 0 167 170 0zm769 1500l-346 146 0 -125 292 -119 0 74 -292 -122 0 -115 346 147 0 114zm0 -357l-306 0 48 -50 0 109 -88 0 0 -176 346 0 0 117zm5 -250c0,19 -6,34 -18,47 -12,12 -28,18 -47,18 -19,0 -34,-6 -45,-18 -12,-13 -18,-28 -18,-47 0,-18 6,-34 18,-46 11,-13 26,-19 45,-19 19,0 35,6 47,19 12,12 18,28 18,46zm3 -268c0,31 -7,58 -22,81 -14,24 -34,42 -61,55 -27,14 -60,21 -98,21 -38,0 -71,-7 -98,-21 -27,-13 -48,-31 -62,-55 -14,-23 -21,-50 -21,-81 0,-31 7,-58 21,-81 14,-24 35,-42 62,-56 27,-13 60,-20 98,-20 38,0 71,7 98,20 27,14 47,32 61,56 15,23 22,50 22,81zm-94 0c0,-8 -2,-14 -8,-20 -5,-6 -14,-11 -27,-14 -13,-4 -30,-6 -52,-6 -23,0 -40,2 -53,6 -12,3 -21,8 -27,14 -5,6 -8,12 -8,20 0,8 3,14 8,20 6,6 15,11 27,14 13,4 30,5 53,5 22,0 39,-1 52,-5 13,-3 22,-8 27,-14 6,-6 8,-12 8,-20z"/>
  </g>
  <g id="_314682064">
   <line class="fil0 str0" x1="11236" y1="18028" x2="9771" y2= "18028" />
   <line class="fil0 str0" x1="9771" y1="18028" x2="9771" y2= "18328" />
   <line class="fil0 str0" x1="9771" y1="18328" x2="8357" y2= "18328" />
   <line class="fil0 str0" x1="8357" y1="18328" x2="8357" y2= "18028" />
   <line class="fil0 str0" x1="8357" y1="18028" x2="6943" y2= "18028" />
   <line class="fil0 str0" x1="6943" y1="18028" x2="6943" y2= "18328" />
   <line class="fil0 str0" x1="6943" y1="18328" x2="5529" y2= "18328" />
   <line class="fil0 str0" x1="5529" y1="18328" x2="5529" y2= "18028" />
   <line class="fil0 str0" x1="5529" y1="18028" x2="4115" y2= "18028" />
   <line class="fil0 str0" x1="4115" y1="18028" x2="4115" y2= "18328" />
   <line class="fil0 str0" x1="4115" y1="18328" x2="2701" y2= "18328" />
   <line class="fil0 str0" x1="2701" y1="18328" x2="2701" y2= "18028" />
   <line class="fil0 str0" x1="2701" y1="18028" x2="1236" y2= "18028" />
   <line class="fil0 str0" x1="1236" y1="18028" x2="1236" y2= "17235" />
   <line class="fil0 str0" x1="1236" y1="17235" x2="936" y2= "17235" />
   <line class="fil0 str0" x1="936" y1="17235" x2="936" y2= "15821" />
   <line class="fil0 str0" x1="936" y1="15821" x2="1236" y2= "15821" />
   <line class="fil0 str0" x1="1236" y1="15821" x2="1236" y2= "15028" />
   <line class="fil0 str0" x1="1236" y1="15028" x2="2701" y2= "15028" />
   <line class="fil0 str0" x1="2701" y1="15028" x2="2701" y2= "14728" />
   <line class="fil0 str0" x1="2701" y1="14728" x2="4115" y2= "14728" />
   <line class="fil0 str0" x1="4115" y1="14728" x2="4115" y2= "15028" />
   <line class="fil0 str0" x1="4115" y1="15028" x2="5529" y2= "15028" />
   <line class="fil0 str0" x1="5529" y1="15028" x2="5529" y2= "14728" />
   <line class="fil0 str0" x1="5529" y1="14728" x2="6943" y2= "14728" />
   <line class="fil0 str0" x1="6943" y1="14728" x2="6943" y2= "15028" />
   <line class="fil0 str0" x1="6943" y1="15028" x2="8357" y2= "15028" />
   <line class="fil0 str0" x1="8357" y1="15028" x2="8357" y2= "14728" />
   <line class="fil0 str0" x1="8357" y1="14728" x2="9771" y2= "14728" />
   <line class="fil0 str0" x1="9771" y1="14728" x2="9771" y2= "15028" />
   <line class="fil0 str0" x1="9771" y1="15028" x2="11236" y2= "15028" />
   <line class="fil0 str0" x1="11236" y1="15028" x2="11236" y2= "15821" />
   <line class="fil0 str0" x1="11236" y1="15821" x2="11536" y2= "15821" />
   <line class="fil0 str0" x1="11536" y1="15821" x2="11536" y2= "17235" />
   <line class="fil0 str0" x1="11536" y1="17235" x2="11236" y2= "17235" />
   <line class="fil0 str0" x1="11236" y1="17235" x2="11236" y2= "18028" />
   <path class="fil1" d="M1617 15780l0 -395 109 0 158 258 -57 0 153 -258 110 0 1 395 -121 0 -2 -212 20 0 -105 177 -59 0 -110 -177 24 0 0 212 -121 0zm534 0l173 -395 131 0 173 395 -138 0 -128 -332 52 0 -127 332 -136 0zm103 -69l34 -96 182 0 34 96 -250 0zm434 69l0 -395 195 0c44,0 83,8 116,24 34,16 60,39 79,68 18,29 28,64 28,105 0,41 -10,76 -28,106 -19,29 -45,52 -79,68 -33,16 -72,24 -116,24l-195 0zm133 -104l56 0c19,0 35,-3 50,-10 14,-7 25,-18 33,-32 8,-14 11,-32 11,-52 0,-20 -3,-37 -11,-51 -8,-14 -19,-24 -33,-31 -15,-7 -31,-11 -50,-11l-56 0 0 187zm494 -144l176 0 0 96 -176 0 0 -96zm9 148l198 0 0 100 -329 0 0 -395 321 0 0 101 -190 0 0 194zm419 100l0 -395 211 0c54,0 94,10 120,29 26,20 39,44 39,74 0,20 -5,38 -16,54 -11,15 -27,28 -49,37 -21,9 -47,13 -77,13l11 -30c31,0 57,4 80,13 22,8 39,21 52,37 12,17 18,36 18,59 0,35 -14,61 -43,80 -28,20 -70,29 -124,29l-222 0zm130 -93l81 0c14,0 25,-3 33,-8 7,-5 11,-13 11,-23 0,-10 -4,-18 -11,-23 -8,-5 -19,-8 -33,-8l-90 0 0 -88 72 0c15,0 26,-3 33,-8 7,-5 10,-12 10,-21 0,-10 -3,-18 -10,-22 -7,-5 -18,-8 -33,-8l-63 0 0 209zm438 93l0 -173 30 80 -179 -302 140 0 122 206 -82 0 122 -206 129 0 -178 302 29 -80 0 173 -133 0zm-2737 779l173 -396 131 0 172 396 -137 0 -128 -332 52 0 -128 332 -135 0zm103 -69l34 -96 181 0 34 96 -249 0zm434 69l0 -396 133 0 0 292 178 0 0 104 -311 0zm509 -249l176 0 0 96 -176 0 0 -96zm9 148l197 0 0 101 -328 0 0 -396 321 0 0 101 -190 0 0 194zm388 110c-31,0 -59,-5 -84,-15 -25,-10 -45,-25 -62,-44l72 -85c10,13 21,23 31,29 10,7 20,10 31,10 29,0 43,-16 43,-49l0 -150 -134 0 0 -101 266 0 0 243c0,54 -14,95 -42,122 -28,26 -68,40 -121,40zm211 -9l173 -396 131 0 173 396 -138 0 -128 -332 52 0 -127 332 -136 0zm103 -69l34 -96 182 0 34 96 -250 0zm434 69l0 -396 110 0 201 241 -51 0 0 -241 130 0 0 396 -110 0 -201 -241 51 0 0 241 -130 0zm493 0l0 -396 195 0c44,0 82,8 116,24 33,16 59,39 78,69 19,29 29,64 29,104 0,42 -10,77 -29,106 -19,30 -45,53 -78,69 -34,16 -72,24 -116,24l-195 0zm133 -104l56 0c19,0 35,-4 49,-11 14,-7 25,-18 33,-32 8,-14 12,-31 12,-52 0,-19 -4,-36 -12,-50 -8,-14 -19,-25 -33,-32 -14,-7 -30,-11 -49,-11l-56 0 0 188zm372 104l0 -396 190 0c37,0 69,7 96,19 27,12 48,29 62,51 15,23 22,49 22,80 0,30 -7,56 -22,78 -14,22 -35,39 -62,51 -27,11 -59,17 -96,17l-116 0 59 -54 0 154 -133 0zm237 0l-98 -144 142 0 98 144 -142 0zm-104 -140l-59 -60 108 0c18,0 32,-4 41,-13 9,-8 13,-19 13,-33 0,-15 -4,-26 -13,-34 -9,-9 -23,-13 -41,-13l-108 0 59 -60 0 213zm534 149c-32,0 -62,-5 -89,-16 -28,-10 -51,-24 -71,-43 -20,-18 -36,-40 -47,-66 -11,-25 -16,-52 -16,-82 0,-30 5,-58 16,-83 11,-25 27,-46 47,-65 20,-19 43,-33 71,-43 27,-10 57,-16 89,-16 32,0 62,6 89,16 27,10 50,24 70,43 20,19 36,40 47,65 11,25 17,53 17,83 0,30 -6,57 -17,82 -11,26 -27,48 -47,66 -20,19 -43,33 -70,43 -27,11 -57,16 -89,16zm0 -108c12,0 24,-2 34,-7 11,-4 20,-11 29,-19 8,-9 14,-19 18,-31 5,-13 7,-27 7,-42 0,-15 -2,-29 -7,-41 -4,-13 -10,-23 -18,-31 -9,-9 -18,-15 -29,-20 -10,-4 -22,-7 -34,-7 -13,0 -24,3 -35,7 -11,5 -20,11 -28,20 -8,8 -15,18 -19,31 -5,12 -7,26 -7,41 0,15 2,29 7,42 4,12 11,22 19,31 8,8 17,15 28,19 11,5 22,7 35,7zm-3608 886c-32,0 -62,-5 -89,-15 -27,-10 -50,-24 -70,-43 -19,-18 -35,-40 -46,-65 -11,-25 -16,-53 -16,-84 0,-30 5,-58 16,-83 11,-25 27,-47 47,-66 20,-18 43,-32 70,-42 28,-10 58,-15 91,-15 39,0 74,6 104,20 31,13 56,32 76,56l-85 75c-13,-14 -26,-25 -40,-32 -15,-8 -31,-11 -49,-11 -14,0 -28,2 -39,6 -12,5 -22,12 -31,20 -8,9 -14,19 -19,31 -4,12 -7,26 -7,41 0,15 3,29 7,41 5,12 11,22 19,31 9,9 18,15 30,20 11,5 24,7 39,7 15,0 29,-2 44,-7 14,-6 29,-14 45,-27l75 92c-24,16 -52,28 -83,37 -30,9 -60,13 -89,13zm56 -67l0 -150 116 0 0 167 -116 -17zm169 58l173 -395 131 0 172 395 -137 0 -128 -332 52 0 -128 332 -135 0zm103 -69l34 -96 181 0 34 96 -249 0zm434 69l0 -395 190 0c37,0 69,6 96,18 26,12 47,29 62,52 15,22 22,48 22,79 0,30 -7,57 -22,79 -15,22 -36,38 -62,50 -27,12 -59,18 -96,18l-116 0 59 -55 0 154 -133 0zm236 0l-97 -144 141 0 98 144 -142 0zm-103 -139l-59 -61 107 0c19,0 33,-4 41,-12 9,-9 14,-20 14,-34 0,-14 -5,-26 -14,-34 -8,-8 -22,-12 -41,-12l-107 0 59 -61 0 214zm530 148c-31,0 -60,-5 -87,-15 -27,-10 -51,-24 -70,-43 -20,-18 -35,-40 -46,-65 -11,-25 -17,-53 -17,-84 0,-30 6,-58 17,-83 11,-25 26,-47 46,-66 19,-18 43,-32 70,-42 27,-10 56,-15 87,-15 39,0 74,7 103,20 30,14 55,33 75,59l-84 75c-12,-15 -25,-26 -39,-34 -14,-8 -30,-12 -48,-12 -14,0 -26,2 -38,6 -11,5 -21,12 -29,20 -8,9 -14,19 -19,31 -4,13 -6,26 -6,41 0,15 2,29 6,41 5,13 11,23 19,32 8,8 18,15 29,19 12,5 24,7 38,7 18,0 34,-4 48,-12 14,-8 27,-19 39,-34l84 75c-20,25 -45,45 -75,58 -29,14 -64,21 -103,21zm255 -9l0 -395 133 0 0 395 -133 0zm7 -427l75 -91 121 0 -111 91 -85 0zm187 427l172 -395 131 0 173 395 -138 0 -127 -332 52 0 -128 332 -135 0zm102 -69l34 -96 182 0 34 96 -250 0zm689 69l-167 -395 143 0 136 333 -85 0 140 -333 131 0 -167 395 -131 0zm350 0l0 -395 133 0 0 395 -133 0zm236 0l0 -395 134 0 0 292 178 0 0 103 -312 0zm388 0l0 -395 133 0 0 292 178 0 0 103 -311 0zm350 0l172 -395 131 0 173 395 -138 0 -127 -332 52 0 -128 332 -135 0zm102 -69l34 -96 182 0 34 96 -250 0zm434 69l0 -395 134 0 0 292 178 0 0 103 -312 0zm486 0l-167 -395 144 0 136 333 -86 0 140 -333 131 0 -167 395 -131 0zm293 0l173 -395 131 0 173 395 -138 0 -128 -332 52 0 -127 332 -136 0zm103 -69l34 -96 182 0 34 96 -250 0zm420 69l0 -82 220 -256 17 46 -231 0 0 -103 348 0 0 82 -220 256 -17 -46 246 0 0 103 -363 0zm646 9c-33,0 -62,-5 -90,-15 -27,-10 -51,-25 -71,-43 -20,-19 -35,-41 -46,-66 -11,-25 -17,-53 -17,-83 0,-30 6,-57 17,-82 11,-25 26,-47 46,-66 20,-18 44,-33 71,-43 28,-10 57,-15 89,-15 33,0 62,5 89,15 27,10 51,25 71,43 20,19 35,41 46,66 12,25 17,52 17,82 0,30 -5,58 -17,83 -11,25 -26,47 -46,66 -20,18 -44,33 -71,43 -27,10 -56,15 -88,15zm-1 -108c13,0 24,-2 35,-7 11,-4 20,-11 28,-19 8,-9 14,-19 19,-31 5,-12 7,-26 7,-42 0,-15 -2,-29 -7,-41 -5,-12 -11,-23 -19,-31 -8,-9 -17,-15 -28,-20 -11,-4 -22,-6 -35,-6 -12,0 -24,2 -35,6 -10,5 -20,11 -28,20 -8,8 -14,19 -19,31 -4,12 -6,26 -6,41 0,16 2,30 6,42 5,12 11,22 19,31 8,8 18,15 28,19 11,5 23,7 35,7z"/>
  </g>
  <g id="_314675824">
   <line class="fil0 str0" x1="10729" y1="2790" x2="9529" y2= "2790" />
   <line class="fil0 str0" x1="9529" y1="2790" x2="9529" y2= "3390" />
   <line class="fil0 str0" x1="9529" y1="3390" x2="10729" y2= "3390" />
   <line class="fil0 str0" x1="10729" y1="3390" x2="10729" y2= "2790" />
   <line class="fil0 str0" x1="7829" y1="2890" x2="7629" y2= "2890" />
   <line class="fil0 str0" x1="7529" y1="2990" x2="7529" y2= "3190" />
   <line class="fil0 str0" x1="7629" y1="3290" x2="7829" y2= "3290" />
   <line class="fil0 str0" x1="7929" y1="3190" x2="7929" y2= "2990" />
   <line class="fil0 str0" x1="2694" y1="1290" x2="2694" y2= "990" />
   <line class="fil0 str0" x1="4108" y1="1290" x2="2694" y2= "1290" />
   <line class="fil0 str0" x1="4108" y1="990" x2="4108" y2= "1290" />
   <line class="fil0 str0" x1="5522" y1="990" x2="4108" y2= "990" />
   <line class="fil0 str0" x1="5522" y1="1290" x2="5522" y2= "990" />
   <line class="fil0 str0" x1="6936" y1="1290" x2="5522" y2= "1290" />
   <line class="fil0 str0" x1="6936" y1="990" x2="6936" y2= "1290" />
   <line class="fil0 str0" x1="8350" y1="990" x2="6936" y2= "990" />
   <line class="fil0 str0" x1="8350" y1="1290" x2="8350" y2= "990" />
   <line class="fil0 str0" x1="9764" y1="1290" x2="8350" y2= "1290" />
   <line class="fil0 str0" x1="9764" y1="990" x2="9764" y2= "1290" />
   <line class="fil0 str0" x1="11229" y1="990" x2="9764" y2= "990" />
   <line class="fil0 str0" x1="11229" y1="2583" x2="11229" y2= "990" />
   <line class="fil0 str0" x1="11529" y1="2583" x2="11229" y2= "2583" />
   <line class="fil0 str0" x1="11529" y1="3997" x2="11529" y2= "2583" />
   <line class="fil0 str0" x1="11229" y1="3997" x2="11529" y2= "3997" />
   <line class="fil0 str0" x1="11229" y1="5590" x2="11229" y2= "3997" />
   <line class="fil0 str0" x1="9764" y1="5590" x2="11229" y2= "5590" />
   <line class="fil0 str0" x1="9764" y1="5290" x2="9764" y2= "5590" />
   <line class="fil0 str0" x1="8350" y1="5290" x2="9764" y2= "5290" />
   <line class="fil0 str0" x1="8350" y1="5590" x2="8350" y2= "5290" />
   <line class="fil0 str0" x1="6936" y1="5590" x2="8350" y2= "5590" />
   <line class="fil0 str0" x1="6936" y1="5290" x2="6936" y2= "5590" />
   <line class="fil0 str0" x1="5522" y1="5290" x2="6936" y2= "5290" />
   <line class="fil0 str0" x1="5522" y1="5590" x2="5522" y2= "5290" />
   <line class="fil0 str0" x1="4108" y1="5590" x2="5522" y2= "5590" />
   <line class="fil0 str0" x1="4108" y1="5290" x2="4108" y2= "5590" />
   <line class="fil0 str0" x1="2694" y1="5290" x2="4108" y2= "5290" />
   <line class="fil0 str0" x1="2694" y1="5590" x2="2694" y2= "5290" />
   <line class="fil0 str0" x1="1229" y1="5590" x2="2694" y2= "5590" />
   <line class="fil0 str0" x1="1229" y1="3997" x2="1229" y2= "5590" />
   <line class="fil0 str0" x1="929" y1="3997" x2="1229" y2= "3997" />
   <line class="fil0 str0" x1="929" y1="2583" x2="929" y2= "3997" />
   <line class="fil0 str0" x1="1229" y1="2583" x2="929" y2= "2583" />
   <line class="fil0 str0" x1="1229" y1="990" x2="1229" y2= "2583" />
   <line class="fil0 str0" x1="2694" y1="990" x2="1229" y2= "990" />
   <path class="fil0 str0" d="M7929 2990c0,-26 -10,-52 -29,-70 -19,-19 -44,-30 -71,-30"/>
   <path class="fil0 str0" d="M7629 2890c-26,0 -52,11 -70,30 -19,18 -30,44 -30,70"/>
   <path class="fil0 str0" d="M7529 3190c0,27 11,52 30,71 18,19 44,29 70,29"/>
   <path class="fil0 str0" d="M7829 3290c56,0 100,-44 100,-100"/>
   <path class="fil1" d="M9890 3918c-25,0 -50,-3 -76,-8 -26,-6 -49,-14 -69,-25l42 -91c16,9 33,15 50,20 17,4 33,6 49,6 14,0 25,-2 34,-7 10,-5 14,-12 14,-22 0,-5 -1,-9 -5,-14 -3,-4 -8,-7 -16,-9 -8,-2 -20,-3 -35,-3l-106 0 18 -223 244 0 0 93 -200 0 62 -53 -11 143 -62 -53 85 0c37,0 66,5 88,15 22,11 38,25 48,43 10,17 15,37 15,59 0,22 -6,42 -18,62 -12,20 -30,36 -55,48 -24,13 -56,19 -96,19zm334 -8l-155 -368 133 0 127 310 -80 0 131 -310 122 0 -156 368 -122 0z"/>
   <path class="fil1" d="M9322 2629l0 -368 124 0 0 368 -124 0zm199 0l0 -368 102 0 188 224 -48 0 0 -224 121 0 0 368 -102 0 -187 -224 47 0 0 224 -121 0zm439 0l0 -368 177 0c34,0 64,6 89,17 25,11 44,27 58,48 14,21 21,46 21,74 0,28 -7,53 -21,74 -14,20 -33,36 -58,48 -25,11 -55,17 -89,17l-108 0 55 -53 0 143 -124 0zm124 -130l-55 -56 100 0c17,0 30,-4 38,-11 8,-8 13,-19 13,-32 0,-13 -5,-24 -13,-32 -8,-7 -21,-11 -38,-11l-100 0 55 -56 0 198zm448 139c-57,0 -101,-16 -132,-46 -32,-31 -48,-73 -48,-128l0 -203 124 0 0 199c0,28 6,48 16,60 10,11 24,17 41,17 17,0 31,-6 41,-17 10,-12 15,-32 15,-60l0 -199 122 0 0 203c0,55 -16,97 -47,128 -32,30 -76,46 -132,46zm326 -9l0 -272 -108 0 0 -96 340 0 0 96 -108 0 0 272 -124 0z"/>
  </g>
 </g>
</svg>
